<?xml version="1.0" encoding="utf-8"?>
<!-- Generator: Adobe Illustrator 25.4.1, SVG Export Plug-In . SVG Version: 6.00 Build 0)  -->
<svg version="1.1" id="Layer_7" xmlns="http://www.w3.org/2000/svg" xmlns:xlink="http://www.w3.org/1999/xlink" x="0px" y="0px"
	 viewBox="0 0 712.6 296.9" style="enable-background:new 0 0 712.6 296.9;" xml:space="preserve">
<style type="text/css">
	.st0{fill:#FEC527;}
</style>
<path d="M62.6,142.8h-3.9v-4h13.6v4h-3.8l-9.2,7.6L68,159h4.3v4.3h-6.4l-12.3-12.4v8.1h4.2v4.3H44.4V159h4.4v-26.7h-4.4V128h9.3
	v22.3L62.6,142.8z"/>
<path d="M95.9,147.4V159h4.1v4.3h-8.4v-3c-2.3,2.3-5,3.4-7.8,3.4c-1.5,0-2.9-0.4-4.2-1.1s-2.3-1.6-3-2.8s-1.1-2.5-1.1-3.9
	c0-1.5,0.4-2.9,1.3-4.1s2-2.1,3.4-2.8s2.9-1,4.3-1c2.4,0,4.6,0.7,6.7,2.1v-2.6c0-1.9-0.4-3.3-1.2-4.1s-2.1-1.2-4-1.2
	c-1.3,0-2.4,0.2-3.3,0.7s-1.6,1.2-2.2,2.2l-4.6-1.1c1-2,2.5-3.4,4.2-4.4s3.9-1.4,6.4-1.4c3.3,0,5.7,0.8,7.2,2.2
	S95.9,144.2,95.9,147.4z M84.5,160c2.4,0,4.6-1,6.7-3v-2.9c-2.1-1.6-4.2-2.5-6.3-2.5c-1.3,0-2.4,0.4-3.3,1.2s-1.4,1.8-1.4,3
	c0,1.2,0.4,2.1,1.2,2.9S83.2,160,84.5,160z"/>
<path d="M111.8,153.5v5.6h5.4v4.3H102V159h4.9v-16H102v-4.3h8.8v5.6c1-2.2,2.2-3.7,3.7-4.6s3.6-1.3,6.3-1.3h1.1v4.9h-1.1
	c-2.6,0-4.6,0.3-5.9,1s-2.1,1.7-2.5,3.1S111.8,150.8,111.8,153.5z"/>
<path d="M147.7,152.3H127c0.3,2.4,1.2,4.2,2.7,5.6s3.4,2.1,5.6,2.1c1.6,0,3.1-0.3,4.5-1s2.6-1.7,3.5-3.1l4.3,1.9
	c-1.3,2.1-3.1,3.7-5.3,4.7s-4.6,1.6-7.1,1.6c-2.7,0-5-0.6-7.1-1.7s-3.7-2.7-4.8-4.6s-1.7-4.2-1.7-6.7c0-2.5,0.6-4.7,1.7-6.7
	s2.7-3.5,4.7-4.7s4.1-1.7,6.5-1.7c2.6,0,4.9,0.6,6.8,1.7s3.4,2.8,4.6,4.9S147.6,149.4,147.7,152.3z M134.6,142.1
	c-1.8,0-3.4,0.6-4.8,1.8s-2.3,2.8-2.6,4.9h15.4c-0.5-2-1.4-3.6-2.9-4.9S136.5,142.1,134.6,142.1z"/>
<path d="M174.8,146.8V159h4.1v4.3h-9v-16.3c0-1.5-0.2-2.7-0.7-3.3s-1.2-1-2.2-1c-2.2,0-4.6,1.1-7.3,3.2V159h4.2v4.3h-13.4V159h4.3
	v-16h-4.3v-4.3h9.1v3c3-2.2,5.9-3.3,8.5-3.3c2.2,0,3.8,0.7,4.9,2S174.8,143.9,174.8,146.8z"/>
<path d="M538.5,159v4.3h-9.3v-3.6c-2.5,2.7-5.4,4-8.8,4c-2.4,0-4.5-0.6-6.3-1.7s-3.2-2.6-4.2-4.6s-1.5-4-1.5-6.4
	c0-2.4,0.5-4.6,1.6-6.6s2.6-3.6,4.4-4.8s3.9-1.8,6.1-1.8c1.6,0,3.1,0.3,4.5,1s2.8,1.6,4.2,3v-9.8h-4.8V128h9.6v31H538.5z
	 M521.3,159.5c1.5,0,2.9-0.4,4.1-1.2s2.1-1.9,2.8-3.2s1-2.8,1-4.3c0-1.5-0.3-2.9-1-4.2s-1.6-2.3-2.9-3s-2.6-1.1-4.1-1.1
	c-1.5,0-2.8,0.4-4,1.2s-2.1,1.8-2.8,3.1s-1,2.7-1,4.2c0,1.6,0.3,3,1,4.3s1.6,2.3,2.8,3S519.9,159.5,521.3,159.5z"/>
<path d="M566.9,152.3h-20.6c0.3,2.4,1.2,4.2,2.7,5.6s3.4,2.1,5.6,2.1c1.6,0,3.1-0.3,4.5-1s2.6-1.7,3.5-3.1l4.3,1.9
	c-1.3,2.1-3.1,3.7-5.3,4.7s-4.6,1.6-7.1,1.6c-2.7,0-5-0.6-7.1-1.7s-3.7-2.7-4.8-4.6s-1.7-4.2-1.7-6.7c0-2.5,0.6-4.7,1.7-6.7
	s2.7-3.5,4.7-4.7s4.1-1.7,6.5-1.7c2.6,0,4.9,0.6,6.8,1.7s3.4,2.8,4.6,4.9S566.9,149.4,566.9,152.3z M553.9,142.1
	c-1.8,0-3.4,0.6-4.8,1.8s-2.3,2.8-2.6,4.9h15.4c-0.5-2-1.4-3.6-2.9-4.9S555.8,142.1,553.9,142.1z"/>
<path d="M585.5,139.8v-1.1h4.2v8.2h-4.2v-1.5c-1.4-2-3.3-3-5.8-3c-1.3,0-2.3,0.3-3.1,0.8s-1.2,1.3-1.2,2.2c0,0.8,0.3,1.4,0.9,1.9
	s2,0.9,4.2,1.2l3.3,0.6c4.9,0.9,7.3,3.3,7.3,7.1c0,2.3-0.9,4.1-2.6,5.5s-4.1,2.1-7,2.1c-1.2,0-2.3-0.2-3.4-0.5s-2.1-0.8-2.8-1.3v1.3
	h-4.3v-8.4h4.3v0.8c0.2,1.2,0.9,2.1,2,2.9s2.3,1.1,3.8,1.1c1.6,0,2.8-0.3,3.7-0.8s1.4-1.4,1.4-2.5c0-0.8-0.4-1.4-1.1-1.8
	s-2.2-0.8-4.3-1.2l-2.5-0.5c-2.5-0.5-4.3-1.4-5.5-2.6s-1.7-2.8-1.7-4.7c0-1.5,0.4-2.8,1.3-3.9s1.9-1.9,3.3-2.4s2.7-0.8,4.1-0.8
	C581.9,138.4,583.9,138.9,585.5,139.8z"/>
<path d="M606.5,159v4.3h-12.4V159h3.8v-16h-3.8v-4.3h8.7V159H606.5z M603,130.4c0,0.8-0.3,1.5-0.9,2.1s-1.3,0.9-2.1,0.9
	s-1.5-0.3-2-0.9s-0.8-1.3-0.8-2.1s0.3-1.5,0.8-2.1s1.2-0.9,2-0.9c0.8,0,1.5,0.3,2.1,0.8S603,129.6,603,130.4z"/>
<path d="M630.3,142.3v-3.6h9.3v4.3h-4.5v18.5c0,4.3-1.1,7.6-3.2,9.9s-5.3,3.5-9.5,3.5c-3.9,0-7.3-1.1-10.1-3.3l3.1-3.5
	c1.1,0.8,2.3,1.4,3.4,1.9s2.4,0.6,3.7,0.6c2.4,0,4.3-0.8,5.7-2.3s2.1-3.5,2.1-6V160c-1.1,1.2-2.4,2.2-4,3s-3.3,1.1-4.9,1.1
	c-2.3,0-4.3-0.6-6.2-1.7s-3.2-2.7-4.3-4.6s-1.5-4-1.5-6.3c0-2.3,0.5-4.5,1.6-6.5s2.5-3.6,4.4-4.8s3.9-1.8,6.2-1.8
	c1.6,0,3.1,0.3,4.6,1S628.9,141,630.3,142.3z M622.3,159.7c1.5,0,2.9-0.4,4.1-1.1s2.2-1.8,2.9-3.1s1-2.7,1-4.2c0-1.4-0.3-2.8-1-4.1
	s-1.6-2.3-2.9-3.1s-2.6-1.2-4.1-1.2c-1.5,0-2.8,0.4-4,1.1s-2.1,1.8-2.8,3.1s-1,2.7-1,4.2c0,1.5,0.3,2.9,1,4.2s1.6,2.3,2.7,3
	S620.7,159.7,622.3,159.7z"/>
<path d="M665.4,146.8V159h4.1v4.3h-9v-16.3c0-1.5-0.2-2.7-0.7-3.3s-1.2-1-2.2-1c-2.2,0-4.6,1.1-7.3,3.2V159h4.2v4.3h-13.4V159h4.3
	v-16h-4.3v-4.3h9.1v3c3-2.2,5.9-3.3,8.5-3.3c2.2,0,3.8,0.7,4.9,2S665.4,143.9,665.4,146.8z"/>
<g>
	<path class="st0" d="M484.6,169.7c-2.2,4.7-5.3,8.4-9.2,11.2c-3.9,2.8-8.3,4.2-13.1,4.2c-4.7,0-9-1.3-12.9-3.9
		c-3.8-2.6-6.9-6.1-9.1-10.6c-2.2-4.5-3.3-9.5-3.3-15.1c0-5.2,1.1-10.1,3.3-14.7s5.1-8.2,8.9-11s8-4.2,12.8-4.2
		c4.9,0,9.4,1.3,13.3,3.9s7,6.1,9.2,10.5c1.2,2.3,2,4.8,2.6,7.3v-97L395,53.5v25.6c0,0-44.1,0.1-80.1,0.3
		c-11.3,0.1-31.5,11.2-31.5,11.2s-40.4-0.4-40.8,0.1l-31.7,119.9h144.8v23h131.5v-71.4C486.6,164.8,485.7,167.3,484.6,169.7z
		 M368.5,175.4c-5.6,7.9-30.5,14.3-36.9,14.2c-23.1-0.2-22.1-37.5,0.5-38.4c11-0.4,30.7,6.1,36.4,12.7V175.4z"/>
	<path class="st0" d="M487.9,154.8c0-2.6-0.3-5-0.8-7.4v14.8C487.6,159.8,487.9,157.3,487.9,154.8z"/>
</g>
<path d="M407.2,234h29.2v9h-74.7v-9h27V92.5h-15V79.4l27.4,0.2l1.2,41.7c8-21.5,28-35.1,51.1-33.9c0,0,3.3,0,3.3,0v9.8
	c-30.1-4.9-46.5,30.4-48.6,41.6L407.2,234z"/>
<path d="M500.4,183.6V77.1h-30.9v16.1h15.4V124c-4.3-4.8-8.8-8.4-13.4-10.6s-9.5-3.4-14.7-3.4c-7.1,0-13.7,2.1-19.8,6.2
	c-1.7,1.2-3.3,2.4-4.8,3.8c-18.5,14.9-21.2,54.1-1,70.4c1.5,1.4,3.1,2.7,4.9,3.8c5.9,3.9,12.7,5.9,20.3,5.9
	c11.1,0,20.6-4.7,28.5-14.1v12.7h35.9v-15.1H500.4z M484.6,169.7c-2.2,4.7-5.3,8.4-9.2,11.2c-3.9,2.8-8.3,4.2-13.1,4.2
	c-4.7,0-9-1.3-12.9-3.9c-3.8-2.6-6.9-6.1-9.1-10.6c-2.2-4.5-3.3-9.5-3.3-15.1c0-5.2,1.1-10.1,3.3-14.7s5.1-8.2,8.9-11
	s8-4.2,12.8-4.2c4.9,0,9.4,1.3,13.3,3.9s7,6.1,9.2,10.5c2.2,4.4,3.3,9.3,3.3,14.7C487.9,160.1,486.8,165.1,484.6,169.7z"/>
<path d="M377.4,140v46.3h5.2v17.2h-16.7v-12.1c-6.3,9.2-31.4,13.7-39.2,13.7c-4.1,0-7.9-1.4-11.3-4.2c-3.4-2.8-6.1-6.6-8.2-11.3
	s-3.1-9.9-3.1-15.6c0-6.2,1.1-11.7,3.4-16.5c2.3-4.8,5.3-8.5,9.2-11.2c3.8-2.6,7.7-3.9,11.6-3.9c6.5,0,32.6,2.8,38.2,8.4v-10.6
	c0-7.7-0.1-13.1-2.3-16.4c-6.4-9.6-23.4-9-31.8-2.1c-2.4,1.9-4.4,4.8-5.9,8.6l-10.5-4.6c2.8-7.8,8.7-12.7,13.5-16.6
	C355,95.2,376.6,104.7,377.4,140z M331.6,189.7c6.4,0.1,31.3-6.3,36.9-14.2v-11.5c-5.7-6.5-25.4-13.1-36.4-12.7
	C309.5,152.2,308.5,189.5,331.6,189.7z"/>
<path d="M190.9,92.2l21.2,99.1l21.3-100.1h-10.2V79.7h40.2v16.5h-10.6l16.6,82.1l20.5-82.1h-13.3V79.7h43.2v16.5h-13.9l-25.6,114.6
	h-17.8l-22-92.4l-22.3,92.4h-11.6L174.7,97.2h-11.6V80.7h43.4v11.5H190.9z"/>
</svg>
